<?xml version="1.0" standalone="no"?>
<!DOCTYPE svg PUBLIC "-//W3C//DTD SVG 20010904//EN"
 "http://www.w3.org/TR/2001/REC-SVG-20010904/DTD/svg10.dtd">
<svg version="1.0" xmlns="http://www.w3.org/2000/svg"
 width="150.000000pt" height="150.000000pt" viewBox="0 0 150.000000 150.000000"
 preserveAspectRatio="xMidYMid meet">
<metadata>
Created by potrace 1.14, written by Peter Selinger 2001-2017
</metadata>
<g transform="translate(0.000000,150.000000) scale(0.100000,-0.100000)"
fill="#000000" stroke="none">
<path d="M0 1339 c0 -156 1 -160 20 -154 37 12 41 -5 10 -43 -24 -29 -30 -46
-30 -84 l0 -48 28 31 29 32 13 -124 c8 -68 13 -148 11 -178 -2 -48 0 -53 13
-42 17 14 21 -1 30 -110 5 -65 23 -105 76 -169 26 -32 40 -59 45 -90 l6 -45
-123 -30 c-121 -30 -123 -31 -126 -60 l-2 -30 25 30 c14 17 25 25 25 19 0 -6
-11 -21 -25 -34 -23 -22 -25 -30 -25 -117 l0 -93 114 0 115 0 4 28 4 27 2 -27
c1 -21 6 -28 21 -28 11 0 20 3 20 8 0 18 20 123 30 162 7 26 15 39 21 33 5 -5
5 -21 0 -40 -5 -18 -12 -61 -16 -97 l-7 -66 398 0 399 1 104 112 c135 146 206
207 238 207 22 0 18 -6 -33 -44 -33 -24 -111 -96 -174 -160 -114 -115 -114
-116 -82 -116 29 0 46 13 132 103 53 56 123 120 153 142 54 39 71 70 44 81 -7
2 -43 6 -79 7 -75 3 -107 20 -85 46 33 38 110 156 128 195 12 29 20 76 23 142
3 54 10 151 16 214 5 63 10 217 10 343 l0 227 -750 0 -750 0 0 -161z m439
-559 c112 -13 135 -34 31 -28 -47 3 -92 13 -120 26 -26 12 -35 19 -20 17 14
-3 63 -9 109 -15z m626 -5 c-76 -34 -280 -44 -309 -15 -7 7 27 11 104 12 174
2 199 3 206 11 4 4 12 7 18 6 6 0 -2 -7 -19 -14z"/>
<path d="M1429 211 c-58 -43 -188 -176 -197 -201 -2 -6 50 -10 132 -10 l136 0
0 130 c0 72 -1 130 -2 130 -2 0 -32 -22 -69 -49z"/>
</g>
</svg>
